<?xml version="1.0" encoding="UTF-8" standalone="no"?>
<!-- Created with Inkscape (http://www.inkscape.org/) -->

<svg
   xmlns:dc="http://purl.org/dc/elements/1.1/"
   xmlns:cc="http://creativecommons.org/ns#"
   xmlns:rdf="http://www.w3.org/1999/02/22-rdf-syntax-ns#"
   xmlns:svg="http://www.w3.org/2000/svg"
   xmlns="http://www.w3.org/2000/svg"
   xmlns:xlink="http://www.w3.org/1999/xlink"
   xmlns:sodipodi="http://sodipodi.sourceforge.net/DTD/sodipodi-0.dtd"
   xmlns:inkscape="http://www.inkscape.org/namespaces/inkscape"
   width="159.17857mm"
   height="121.80779mm"
   viewBox="0 0 159.17857 121.80779"
   version="1.1"
   id="svg9155"
   sodipodi:docname="app-slotting.svg"
   inkscape:version="0.92.1 r15371">
  <defs
     id="defs9149">
    <linearGradient
       id="linearGradient9920"
       inkscape:collect="always">
      <stop
         id="stop9916"
         offset="0"
         style="stop-color:#00ff05;stop-opacity:1" />
      <stop
         id="stop9918"
         offset="1"
         style="stop-color:#00fa00;stop-opacity:0" />
    </linearGradient>
    <linearGradient
       id="linearGradient9914"
       inkscape:collect="always">
      <stop
         id="stop9910"
         offset="0"
         style="stop-color:#00dcff;stop-opacity:1" />
      <stop
         id="stop9912"
         offset="1"
         style="stop-color:#00eafa;stop-opacity:0" />
    </linearGradient>
    <inkscape:perspective
       sodipodi:type="inkscape:persp3d"
       inkscape:vp_x="0 : 148.49999 : 1"
       inkscape:vp_y="0 : 999.99994 : 0"
       inkscape:vp_z="210 : 148.49999 : 1"
       inkscape:persp3d-origin="105 : 98.999994 : 1"
       id="perspective9718" />
    <linearGradient
       gradientTransform="matrix(2,0,0,2.4999574,-219.41249,-220.81338)"
       inkscape:collect="always"
       xlink:href="#linearGradient7687"
       id="linearGradient7689"
       x1="161.39583"
       y1="143.54167"
       x2="161.39583"
       y2="154.125"
       gradientUnits="userSpaceOnUse" />
    <linearGradient
       inkscape:collect="always"
       id="linearGradient7687">
      <stop
         style="stop-color:#f70000;stop-opacity:1"
         offset="0"
         id="stop7683" />
      <stop
         style="stop-color:#fa0000;stop-opacity:0"
         offset="1"
         id="stop7685" />
    </linearGradient>
    <linearGradient
       gradientTransform="matrix(2,0,0,2.4999574,-219.41249,-220.81338)"
       inkscape:collect="always"
       xlink:href="#linearGradient7668-6"
       id="linearGradient7670"
       x1="161.39583"
       y1="132.95833"
       x2="161.39583"
       y2="143.54167"
       gradientUnits="userSpaceOnUse" />
    <linearGradient
       inkscape:collect="always"
       id="linearGradient7668-6">
      <stop
         style="stop-color:#f700ff;stop-opacity:1"
         offset="0"
         id="stop7664" />
      <stop
         style="stop-color:#fa00fa;stop-opacity:0"
         offset="1"
         id="stop7666" />
    </linearGradient>
    <linearGradient
       gradientTransform="matrix(2,0,0,2.4999574,-166.49703,-220.35954)"
       inkscape:collect="always"
       xlink:href="#linearGradient7687"
       id="linearGradient7689-0"
       x1="161.39583"
       y1="143.54167"
       x2="161.39583"
       y2="154.125"
       gradientUnits="userSpaceOnUse" />
    <linearGradient
       gradientTransform="matrix(2,0,0,2.4999574,-272.71131,-220.35955)"
       inkscape:collect="always"
       xlink:href="#linearGradient7687"
       id="linearGradient7689-2"
       x1="161.39583"
       y1="143.54167"
       x2="161.39583"
       y2="154.125"
       gradientUnits="userSpaceOnUse" />
    <linearGradient
       gradientTransform="matrix(2,0,0,2.4999574,-166.49583,-220.83716)"
       inkscape:collect="always"
       xlink:href="#linearGradient9920"
       id="linearGradient7670-5"
       x1="161.39583"
       y1="132.95833"
       x2="161.39583"
       y2="143.54167"
       gradientUnits="userSpaceOnUse" />
    <linearGradient
       gradientTransform="matrix(2,0,0,2.4999574,-272.71252,-220.81335)"
       inkscape:collect="always"
       xlink:href="#linearGradient9914"
       id="linearGradient7670-0"
       x1="161.39583"
       y1="132.95833"
       x2="161.39583"
       y2="143.54167"
       gradientUnits="userSpaceOnUse" />
  </defs>
  <sodipodi:namedview
     id="base"
     pagecolor="#ffffff"
     bordercolor="#666666"
     borderopacity="1.0"
     inkscape:pageopacity="0.0"
     inkscape:pageshadow="2"
     inkscape:zoom="1"
     inkscape:cx="282.65503"
     inkscape:cy="54.232863"
     inkscape:document-units="mm"
     inkscape:current-layer="layer1"
     showgrid="true"
     showguides="true"
     inkscape:window-width="2560"
     inkscape:window-height="1381"
     inkscape:window-x="0"
     inkscape:window-y="0"
     inkscape:window-maximized="1">
    <inkscape:grid
       type="xygrid"
       id="grid9700"
       originx="-23.598213"
       originy="-132.30565" />
  </sodipodi:namedview>
  <metadata
     id="metadata9152">
    <rdf:RDF>
      <cc:Work
         rdf:about="">
        <dc:format>image/svg+xml</dc:format>
        <dc:type
           rdf:resource="http://purl.org/dc/dcmitype/StillImage" />
        <dc:title></dc:title>
      </cc:Work>
    </rdf:RDF>
  </metadata>
  <g
     inkscape:label="Layer 1"
     inkscape:groupmode="layer"
     id="layer1"
     transform="translate(-23.598213,-42.886562)">
    <g
       id="g9925"
       transform="translate(0,-30.691677)">
      <rect
         ry="4.4056816"
         y="111.81636"
         x="77.112534"
         height="26.43409"
         width="52.533295"
         id="rect4535-6"
         style="fill:url(#linearGradient7670);fill-opacity:1;stroke:#ff00ef;stroke-width:0.42857334;stroke-linecap:round;stroke-linejoin:bevel;stroke-miterlimit:4;stroke-dasharray:none;stroke-dashoffset:0;stroke-opacity:1;paint-order:stroke fill markers" />
      <text
         transform="scale(0.90621023,1.1034967)"
         id="text4622"
         y="116.65204"
         x="101.83785"
         style="font-style:normal;font-weight:normal;font-size:12.8426981px;line-height:125%;font-family:sans-serif;letter-spacing:0px;word-spacing:0px;fill:#000000;fill-opacity:1;stroke:none;stroke-width:0.32106745px;stroke-linecap:butt;stroke-linejoin:miter;stroke-opacity:1"
         xml:space="preserve"><tspan
           style="stroke-width:0.32106745px"
           y="116.65204"
           x="101.83785"
           id="tspan4620"
           sodipodi:role="line">App</tspan></text>
    </g>
    <g
       id="g10010"
       transform="translate(-0.19168289,0.22691345)">
      <rect
         ry="4.3503838"
         y="138.15219"
         x="77.111313"
         height="26.102303"
         width="52.535736"
         id="rect4535-6-3"
         style="fill:url(#linearGradient7689);fill-opacity:1;stroke:#f80000;stroke-width:0.42588511;stroke-linecap:round;stroke-linejoin:bevel;stroke-miterlimit:4;stroke-dasharray:none;stroke-dashoffset:0;stroke-opacity:1;paint-order:stroke fill markers" />
      <text
         transform="scale(0.90621023,1.1034967)"
         id="text4626"
         y="141.61226"
         x="98.696175"
         style="font-style:normal;font-weight:normal;font-size:12.8426981px;line-height:125%;font-family:sans-serif;letter-spacing:0px;word-spacing:0px;fill:#000000;fill-opacity:1;stroke:none;stroke-width:0.32106745px;stroke-linecap:butt;stroke-linejoin:miter;stroke-opacity:1"
         xml:space="preserve"><tspan
           style="stroke-width:0.32106745px"
           y="141.61226"
           x="98.696175"
           id="tspan4624"
           sodipodi:role="line">Data</tspan></text>
    </g>
    <g
       id="g10015"
       transform="translate(7.5002509e-7,-0.22691345)">
      <rect
         ry="4.3503838"
         y="138.60602"
         x="130.02676"
         height="26.102303"
         width="52.535736"
         id="rect4535-6-3-7"
         style="fill:url(#linearGradient7689-0);fill-opacity:1;stroke:#f80000;stroke-width:0.42588511;stroke-linecap:round;stroke-linejoin:bevel;stroke-miterlimit:4;stroke-dasharray:none;stroke-dashoffset:0;stroke-opacity:1;paint-order:stroke fill markers" />
      <text
         transform="scale(0.90621023,1.1034967)"
         id="text4626-4"
         y="142.02353"
         x="157.0882"
         style="font-style:normal;font-weight:normal;font-size:12.8426981px;line-height:125%;font-family:sans-serif;letter-spacing:0px;word-spacing:0px;fill:#000000;fill-opacity:1;stroke:none;stroke-width:0.32106745px;stroke-linecap:butt;stroke-linejoin:miter;stroke-opacity:1"
         xml:space="preserve"><tspan
           style="stroke-width:0.32106745px"
           y="142.02353"
           x="157.0882"
           id="tspan4624-1"
           sodipodi:role="line">Data</tspan></text>
    </g>
    <g
       id="g10005"
       transform="translate(-6.8048637e-7,-0.22691345)">
      <rect
         ry="4.3503838"
         y="138.60602"
         x="23.8125"
         height="26.102303"
         width="52.535736"
         id="rect4535-6-3-5"
         style="fill:url(#linearGradient7689-2);fill-opacity:1;stroke:#f80000;stroke-width:0.42588511;stroke-linecap:round;stroke-linejoin:bevel;stroke-miterlimit:4;stroke-dasharray:none;stroke-dashoffset:0;stroke-opacity:1;paint-order:stroke fill markers" />
      <text
         transform="scale(0.90621023,1.1034967)"
         id="text4626-6"
         y="142.02353"
         x="39.881119"
         style="font-style:normal;font-weight:normal;font-size:12.8426981px;line-height:125%;font-family:sans-serif;letter-spacing:0px;word-spacing:0px;fill:#000000;fill-opacity:1;stroke:none;stroke-width:0.32106745px;stroke-linecap:butt;stroke-linejoin:miter;stroke-opacity:1"
         xml:space="preserve"><tspan
           style="stroke-width:0.32106745px"
           y="142.02353"
           x="39.881119"
           id="tspan4624-5"
           sodipodi:role="line">Data</tspan></text>
    </g>
    <g
       id="g10020"
       transform="translate(0,0.02334595)">
      <rect
         ry="4.4056816"
         y="111.79256"
         x="130.02921"
         height="26.43409"
         width="52.533295"
         id="rect4535-6-7"
         style="fill:url(#linearGradient7670-5);fill-opacity:1;stroke:#00ff00;stroke-width:0.42857334;stroke-linecap:round;stroke-linejoin:bevel;stroke-miterlimit:4;stroke-dasharray:none;stroke-dashoffset:0;stroke-opacity:1;paint-order:stroke fill markers" />
      <text
         transform="scale(0.90621023,1.1034967)"
         id="text4622-3"
         y="116.44138"
         x="144.51501"
         style="font-style:normal;font-variant:normal;font-weight:normal;font-stretch:normal;font-size:8.46666622px;line-height:125%;font-family:sans-serif;-inkscape-font-specification:'sans-serif, Normal';font-variant-ligatures:normal;font-variant-caps:normal;font-variant-numeric:normal;font-feature-settings:normal;text-align:start;letter-spacing:0px;word-spacing:0px;writing-mode:lr-tb;text-anchor:start;fill:#000000;fill-opacity:1;stroke:none;stroke-width:0.32106745px;stroke-linecap:butt;stroke-linejoin:miter;stroke-opacity:1"
         xml:space="preserve"><tspan
           style="font-style:normal;font-variant:normal;font-weight:normal;font-stretch:normal;font-size:8.46666622px;font-family:sans-serif;-inkscape-font-specification:'sans-serif, Normal';font-variant-ligatures:normal;font-variant-caps:normal;font-variant-numeric:normal;font-feature-settings:normal;text-align:start;writing-mode:lr-tb;text-anchor:start;stroke-width:0.32106745px"
           y="116.44138"
           x="144.51501"
           id="tspan4620-6"
           sodipodi:role="line">Elasticsearch</tspan></text>
    </g>
    <g
       id="g10025"
       transform="translate(0,-4.8828125e-4)">
      <rect
         ry="4.4056816"
         y="111.8164"
         x="23.8125"
         height="26.43409"
         width="52.533295"
         id="rect4535-6-5"
         style="fill:url(#linearGradient7670-0);fill-opacity:1;stroke:#00ebef;stroke-width:0.42857334;stroke-linecap:round;stroke-linejoin:bevel;stroke-miterlimit:4;stroke-dasharray:none;stroke-dashoffset:0;stroke-opacity:1;paint-order:stroke fill markers" />
      <text
         transform="scale(0.90621023,1.1034967)"
         id="text4622-6"
         y="117.98778"
         x="45.739883"
         style="font-style:normal;font-weight:normal;font-size:12.8426981px;line-height:125%;font-family:sans-serif;letter-spacing:0px;word-spacing:0px;fill:#000000;fill-opacity:1;stroke:none;stroke-width:0.32106745px;stroke-linecap:butt;stroke-linejoin:miter;stroke-opacity:1"
         xml:space="preserve"><tspan
           style="stroke-width:0.32106745px"
           y="117.98778"
           x="45.739883"
           id="tspan4620-5"
           sodipodi:role="line">DB</tspan></text>
    </g>
    <path
       style="fill:none;fill-rule:evenodd;stroke:#000000;stroke-width:0.26458332px;stroke-linecap:butt;stroke-linejoin:miter;stroke-opacity:1"
       d="m 121.70833,74.75 c -0.35278,-0.705556 -0.73796,-1.395822 -1.05833,-2.116666 -0.0358,-0.0806 0,-0.17639 0,-0.264584 0,-0.0882 0,-0.176389 0,-0.264583 0,-0.266451 0.0488,-1.441183 0,-1.5875 -0.0394,-0.118327 -0.20881,-0.153027 -0.26458,-0.264583 -0.0789,-0.157769 0.0789,-0.371401 0,-0.529167 -0.0558,-0.111559 -0.20881,-0.153027 -0.26459,-0.264583 -0.0524,-0.104908 0.0541,-0.739661 0,-0.79375 -0.0624,-0.06236 -0.20222,0.06236 -0.26458,0 -0.12473,-0.124727 0.0789,-0.371401 0,-0.529167 -0.0558,-0.111559 -0.20881,-0.153027 -0.26458,-0.264583 -0.0525,-0.104907 0.0541,-0.739661 0,-0.79375 -0.0624,-0.06236 -0.20223,0.06236 -0.26459,0 -0.0541,-0.05409 0.0525,-0.688846 0,-0.79375 -0.0558,-0.111559 -0.2088,-0.153027 -0.26458,-0.264584 -0.0348,-0.06957 0,-0.919977 0,-1.058333 0,-0.529166 0,-1.058333 0,-1.5875 0,-0.0882 -0.0624,-0.202221 0,-0.264583 0.0624,-0.06236 0.20222,0.06236 0.26458,0 0.0724,-0.0724 -0.0718,-0.914802 0,-1.058333 0.0558,-0.111559 0.20881,-0.153028 0.26459,-0.264584 0.0394,-0.07888 -0.0394,-0.1857 0,-0.264583 0.0558,-0.111559 0.2088,-0.153027 0.26458,-0.264583 0.0789,-0.157769 -0.12473,-0.404443 0,-0.529167 0.0624,-0.06236 0.20222,0.06236 0.26458,0 0.12473,-0.124727 -0.0789,-0.371401 0,-0.529167 0.0558,-0.111559 0.1954,-0.160806 0.26459,-0.264583 0.10939,-0.164089 0.15519,-0.36508 0.26458,-0.529167 0.0692,-0.10378 0.2088,-0.153027 0.26458,-0.264583 0.0394,-0.07889 -0.0394,-0.185701 0,-0.264583 0.0558,-0.111559 0.20881,-0.153027 0.26459,-0.264584 0.10583,-0.211666 -0.10584,-0.582083 0,-0.79375 0.0558,-0.111559 0.2088,-0.153027 0.26458,-0.264583 0.0789,-0.157768 -0.0789,-0.371401 0,-0.529167 0.0558,-0.111559 0.2088,-0.153027 0.26458,-0.264583 0.0718,-0.143534 -0.0724,-0.985938 0,-1.058333 0.0624,-0.06236 0.20222,0.06236 0.26459,0 0.13229,-0.132292 -0.1323,-0.661459 0,-0.79375 0.0624,-0.06236 0.20222,0.06236 0.26458,0 0.0724,-0.0724 -0.0718,-0.914803 0,-1.058334 0.0558,-0.111559 0.2088,-0.153027 0.26458,-0.264583 0.0394,-0.07889 -0.0394,-0.1857 0,-0.264583 0.0558,-0.111559 0.20881,-0.153027 0.26459,-0.264584 0.10583,-0.211666 -0.10584,-0.582083 0,-0.79375 0.0558,-0.111559 0.2088,-0.153027 0.26458,-0.264583 0.0394,-0.07889 0,-0.17639 0,-0.264583 0,-0.0882 0,-0.17639 0,-0.264584 0,-0.440973 0,-0.881946 0,-1.322916 0,-0.881947 0,-1.76389 0,-2.645834 0,-0.0882 0,-0.176389 0,-0.264583 0,-0.0882 0.0624,-0.202221 0,-0.264583 -0.0624,-0.06236 -0.20222,0.06236 -0.26458,0 -0.0541,-0.05409 0.0524,-0.688846 0,-0.79375 -0.0558,-0.111559 -0.20881,-0.153027 -0.26459,-0.264584 -0.0394,-0.07888 0.0394,-0.1857 0,-0.264583 -0.0558,-0.111559 -0.2088,-0.153027 -0.26458,-0.264583 -0.0789,-0.157769 0.12472,-0.404442 0,-0.529167 -0.0624,-0.06236 -0.20222,0.06236 -0.26458,0 -0.0624,-0.06236 0.0394,-0.1857 0,-0.264583 -0.0558,-0.111559 -0.20881,-0.153027 -0.26459,-0.264584 -0.0394,-0.07888 0,-0.176389 0,-0.264583 0,-0.352779 0,-0.705556 0,-1.058333"
       id="path9972"
       inkscape:connector-curvature="0" />
    <path
       style="fill:none;fill-rule:evenodd;stroke:#000000;stroke-width:0.26458332px;stroke-linecap:butt;stroke-linejoin:miter;stroke-opacity:1"
       d="m 129.64583,74.75 c -0.26459,-0.352779 -0.59654,-0.663916 -0.79375,-1.058333 -0.0789,-0.157768 0,-0.352779 0,-0.529167 0,-0.275148 -0.052,-1.379376 0,-1.5875 0.0478,-0.191322 0.20222,-0.342079 0.26458,-0.529166 0.0571,-0.171429 0,-1.106303 0,-1.322917 0,-0.529167 0,-1.058333 0,-1.5875 0,-0.17639 0,-0.352779 0,-0.529167 0,-0.0882 0.0279,-0.180916 0,-0.264583 -0.0624,-0.187089 -0.20222,-0.34208 -0.26458,-0.529167 -0.0756,-0.226657 0.0583,-0.824915 0,-1.058333 -0.0478,-0.191323 -0.20222,-0.34208 -0.26459,-0.529167 -0.0937,-0.281151 0.0937,-0.777184 0,-1.058333 -0.0394,-0.118327 -0.22514,-0.146259 -0.26458,-0.264583 -0.13229,-0.396875 0.13229,-0.926042 0,-1.322917 -0.0394,-0.118327 -0.22514,-0.146259 -0.26458,-0.264583 -0.11156,-0.334677 0.11156,-0.723659 0,-1.058333 -0.0394,-0.118327 -0.22514,-0.146259 -0.26459,-0.264584 -0.0558,-0.167338 0.0558,-0.361831 0,-0.529166 -0.0394,-0.118327 -0.22514,-0.146259 -0.26458,-0.264584 -0.0558,-0.167338 0.0789,-0.371401 0,-0.529166 -0.0394,-0.07889 -0.20222,0.06236 -0.26458,0 -0.0624,-0.06236 0.0394,-0.185701 0,-0.264584 -0.0558,-0.111559 -0.20881,-0.153027 -0.26459,-0.264583 -0.0524,-0.104907 0.0541,-0.739661 0,-0.79375 -0.0624,-0.06237 -0.20222,0.06236 -0.26458,0 -0.0624,-0.06237 0,-0.17639 0,-0.264583 0,-0.264584 -0.0642,-0.537068 0,-0.79375 0.0302,-0.121002 0.20881,-0.153027 0.26458,-0.264584 0.0841,-0.168262 -0.073,-1.103783 0,-1.322916 0.0394,-0.118327 0.20881,-0.153027 0.26459,-0.264584 0.0394,-0.07888 -0.0214,-0.179022 0,-0.264583 0.0676,-0.270568 0.19694,-0.523182 0.26458,-0.79375 0.0399,-0.159538 -0.0599,-1.262991 0,-1.322917 0.0624,-0.06236 0.20222,0.06236 0.26458,0 0.0541,-0.05409 -0.0524,-0.688845 0,-0.79375 0.0558,-0.111559 0.20881,-0.153027 0.26459,-0.264583 0.10583,-0.211667 -0.10584,-0.582083 0,-0.79375 0.0558,-0.111559 0.2088,-0.153027 0.26458,-0.264583 0.0392,-0.07847 0,-1.331587 0,-1.5875 0,-1.499307 0,-2.998613 0,-4.497917 0,-0.230312 -0.003,-1.056 0,-1.058333 0.40157,-0.321255 0.88195,-0.529167 1.32292,-0.79375"
       id="path9974"
       inkscape:connector-curvature="0" />
    <path
       style="fill:none;fill-rule:evenodd;stroke:#000000;stroke-width:0.26458332px;stroke-linecap:butt;stroke-linejoin:miter;stroke-opacity:1"
       d="m 103.18749,74.750003 c -0.35278,-0.705556 -0.73796,-1.395823 -1.05833,-2.116667 -0.0358,-0.0806 0,-0.176389 0,-0.264583 0,-0.0882 0,-0.17639 0,-0.264583 0,-0.266452 0.0488,-1.441183 0,-1.5875 -0.0394,-0.118327 -0.20881,-0.153027 -0.26458,-0.264584 -0.0789,-0.157768 0.0789,-0.3714 0,-0.529166 -0.0558,-0.111559 -0.20881,-0.153027 -0.26459,-0.264584 -0.0524,-0.104907 0.0541,-0.739661 0,-0.79375 -0.0624,-0.06236 -0.20222,0.06236 -0.26458,0 -0.12473,-0.124727 0.0789,-0.371401 0,-0.529167 -0.0558,-0.111559 -0.20881,-0.153027 -0.26458,-0.264583 -0.0525,-0.104907 0.0541,-0.739661 0,-0.79375 -0.0624,-0.06236 -0.20223,0.06236 -0.26459,0 -0.0541,-0.05409 0.0525,-0.688846 0,-0.79375 -0.0558,-0.111559 -0.2088,-0.153027 -0.26458,-0.264584 -0.0348,-0.06957 0,-0.919977 0,-1.058333 0,-0.529166 0,-1.058333 0,-1.5875 0,-0.0882 -0.0624,-0.202221 0,-0.264583 0.0624,-0.06236 0.20222,0.06236 0.26458,0 0.0724,-0.0724 -0.0718,-0.914802 0,-1.058333 0.0558,-0.111559 0.20881,-0.153028 0.26459,-0.264584 0.0394,-0.07888 -0.0394,-0.1857 0,-0.264583 0.0558,-0.111559 0.2088,-0.153027 0.26458,-0.264583 0.0789,-0.157769 -0.12473,-0.404443 0,-0.529167 0.0624,-0.06236 0.20222,0.06236 0.26458,0 0.12473,-0.124727 -0.0789,-0.371401 0,-0.529167 0.0558,-0.111559 0.1954,-0.160806 0.26459,-0.264583 0.10939,-0.164089 0.15519,-0.36508 0.26458,-0.529167 0.0692,-0.10378 0.2088,-0.153027 0.26458,-0.264583 0.0394,-0.07889 -0.0394,-0.185701 0,-0.264583 0.0558,-0.111559 0.20881,-0.153027 0.26459,-0.264584 0.10583,-0.211666 -0.10584,-0.582083 0,-0.79375 0.0558,-0.111559 0.2088,-0.153027 0.26458,-0.264583 0.0789,-0.157768 -0.0789,-0.371401 0,-0.529167 0.0558,-0.111559 0.2088,-0.153027 0.26458,-0.264583 0.0718,-0.143534 -0.0724,-0.985938 0,-1.058333 0.0624,-0.06236 0.20222,0.06236 0.26459,0 0.13229,-0.132292 -0.1323,-0.661459 0,-0.79375 0.0624,-0.06236 0.20222,0.06236 0.26458,0 0.0724,-0.0724 -0.0718,-0.914803 0,-1.058334 0.0558,-0.111559 0.2088,-0.153027 0.26458,-0.264583 0.0394,-0.07889 -0.0394,-0.1857 0,-0.264583 0.0558,-0.111559 0.20881,-0.153027 0.26459,-0.264584 0.10583,-0.211666 -0.10584,-0.582083 0,-0.79375 0.0558,-0.111559 0.2088,-0.153027 0.26458,-0.264583 0.0394,-0.07889 0,-0.17639 0,-0.264583 0,-0.0882 0,-0.17639 0,-0.264584 0,-0.440973 0,-0.881946 0,-1.322916 0,-0.881947 0,-1.76389 0,-2.645834 0,-0.0882 0,-0.176389 0,-0.264583 0,-0.0882 0.0624,-0.202221 0,-0.264583 -0.0624,-0.06236 -0.20222,0.06236 -0.26458,0 -0.0541,-0.05409 0.0524,-0.688846 0,-0.79375 -0.0558,-0.111559 -0.20881,-0.153027 -0.26459,-0.264584 -0.0394,-0.07888 0.0394,-0.1857 0,-0.264583 -0.0558,-0.111559 -0.2088,-0.153027 -0.26458,-0.264583 -0.0789,-0.157769 0.12472,-0.404442 0,-0.529167 -0.0624,-0.06236 -0.20222,0.06236 -0.26458,0 -0.0624,-0.06236 0.0394,-0.1857 0,-0.264583 -0.0558,-0.111559 -0.20881,-0.153027 -0.26459,-0.264584 -0.0394,-0.07888 0,-0.176389 0,-0.264583 0,-0.352779 0,-0.705556 0,-1.058333"
       id="path9972-1"
       inkscape:connector-curvature="0" />
    <path
       style="fill:none;fill-rule:evenodd;stroke:#000000;stroke-width:0.26458332px;stroke-linecap:butt;stroke-linejoin:miter;stroke-opacity:1"
       d="m 113.77083,74.75 c -0.26459,-0.352776 -0.59654,-0.663916 -0.79375,-1.058333 -0.0789,-0.157766 0,-0.352777 0,-0.529167 0,-0.275148 -0.052,-1.379376 0,-1.5875 0.0478,-0.19132 0.20222,-0.342077 0.26458,-0.529164 0.0571,-0.171428 0,-1.106305 0,-1.322919 0,-0.529166 0,-1.058332 0,-1.587499 0,-0.17639 0,-0.352779 0,-0.529167 0,-0.0882 0.0279,-0.180916 0,-0.264583 -0.0624,-0.187089 -0.20222,-0.34208 -0.26458,-0.529167 -0.0756,-0.226657 0.0583,-0.824915 0,-1.058333 -0.0478,-0.191323 -0.20222,-0.34208 -0.26459,-0.529167 -0.0937,-0.281151 0.0937,-0.777184 0,-1.058333 -0.0394,-0.118327 -0.22514,-0.146259 -0.26458,-0.264583 -0.13229,-0.396875 0.13229,-0.926042 0,-1.322917 -0.0394,-0.118327 -0.22514,-0.146259 -0.26458,-0.264583 -0.11156,-0.334677 0.11156,-0.723659 0,-1.058333 -0.0394,-0.118327 -0.22514,-0.146259 -0.26459,-0.264584 -0.0558,-0.167338 0.0558,-0.361831 0,-0.529166 -0.0394,-0.118327 -0.22514,-0.146259 -0.26458,-0.264584 -0.0558,-0.167338 0.0789,-0.371401 0,-0.529166 -0.0394,-0.07889 -0.20222,0.06236 -0.26458,0 -0.0624,-0.06236 0.0394,-0.185701 0,-0.264584 -0.0558,-0.111559 -0.20881,-0.153027 -0.26459,-0.264583 -0.0524,-0.104907 0.0541,-0.739661 0,-0.79375 -0.0624,-0.06237 -0.20222,0.06236 -0.26458,0 -0.0624,-0.06237 0,-0.17639 0,-0.264583 0,-0.264584 -0.0642,-0.537068 0,-0.79375 0.0302,-0.121002 0.20881,-0.153027 0.26458,-0.264584 0.0841,-0.168262 -0.073,-1.103783 0,-1.322916 0.0394,-0.118327 0.20881,-0.153027 0.26459,-0.264584 0.0394,-0.07888 -0.0214,-0.179022 0,-0.264583 0.0676,-0.270568 0.19694,-0.523182 0.26458,-0.79375 0.0399,-0.159538 -0.0599,-1.262991 0,-1.322917 0.0624,-0.06236 0.20222,0.06236 0.26458,0 0.0541,-0.05409 -0.0524,-0.688845 0,-0.79375 0.0558,-0.111559 0.20881,-0.153027 0.26459,-0.264583 0.10583,-0.211667 -0.10584,-0.582083 0,-0.79375 0.0558,-0.111559 0.2088,-0.153027 0.26458,-0.264583 0.0392,-0.07847 0,-1.331587 0,-1.5875 0,-1.499307 0,-2.998613 0,-4.497917 0,-0.230312 -0.003,-1.056 0,-1.058333 0.40157,-0.321255 0.88195,-0.529167 1.32292,-0.79375"
       id="path9974-9"
       inkscape:connector-curvature="0" />
    <path
       style="fill:none;fill-rule:evenodd;stroke:#000000;stroke-width:0.26458332px;stroke-linecap:butt;stroke-linejoin:miter;stroke-opacity:1"
       d="m 82.020833,74.75 c -0.35278,-0.705556 -0.73796,-1.395823 -1.05833,-2.116667 -0.0358,-0.0806 0,-0.176389 0,-0.264583 0,-0.0882 0,-0.17639 0,-0.264583 0,-0.266452 0.0488,-1.441183 0,-1.5875 -0.0394,-0.118327 -0.20881,-0.153027 -0.26458,-0.264584 -0.0789,-0.157768 0.0789,-0.3714 0,-0.529166 -0.0558,-0.111559 -0.20881,-0.153027 -0.26459,-0.264584 -0.0524,-0.104907 0.0541,-0.739661 0,-0.79375 -0.0624,-0.06236 -0.20222,0.06236 -0.26458,0 -0.12473,-0.124727 0.0789,-0.371401 0,-0.529167 -0.0558,-0.111559 -0.20881,-0.153027 -0.26458,-0.264583 -0.0525,-0.104907 0.0541,-0.739661 0,-0.79375 -0.0624,-0.06236 -0.20223,0.06236 -0.26459,0 -0.0541,-0.05409 0.0525,-0.688846 0,-0.79375 -0.0558,-0.111559 -0.2088,-0.153027 -0.26458,-0.264584 -0.0348,-0.06957 0,-0.919977 0,-1.058333 0,-0.529166 0,-1.058333 0,-1.5875 0,-0.0882 -0.0624,-0.202221 0,-0.264583 0.0624,-0.06236 0.20222,0.06236 0.26458,0 0.0724,-0.0724 -0.0718,-0.914802 0,-1.058333 0.0558,-0.111559 0.20881,-0.153028 0.26459,-0.264584 0.0394,-0.07888 -0.0394,-0.1857 0,-0.264583 0.0558,-0.111559 0.2088,-0.153027 0.26458,-0.264583 0.0789,-0.157769 -0.12473,-0.404443 0,-0.529167 0.0624,-0.06236 0.20222,0.06236 0.26458,0 0.12473,-0.124727 -0.0789,-0.371401 0,-0.529167 0.0558,-0.111559 0.1954,-0.160806 0.26459,-0.264583 0.10939,-0.164089 0.15519,-0.36508 0.26458,-0.529167 0.0692,-0.10378 0.2088,-0.153027 0.26458,-0.264583 0.0394,-0.07889 -0.0394,-0.185701 0,-0.264583 0.0558,-0.111559 0.20881,-0.153027 0.26459,-0.264584 0.10583,-0.211666 -0.10584,-0.582083 0,-0.79375 0.0558,-0.111559 0.2088,-0.153027 0.26458,-0.264583 0.0789,-0.157768 -0.0789,-0.371401 0,-0.529167 0.0558,-0.111559 0.2088,-0.153027 0.26458,-0.264583 0.0718,-0.143534 -0.0724,-0.985938 0,-1.058333 0.0624,-0.06236 0.20222,0.06236 0.26459,0 0.13229,-0.132292 -0.1323,-0.661459 0,-0.79375 0.0624,-0.06236 0.20222,0.06236 0.26458,0 0.0724,-0.0724 -0.0718,-0.914803 0,-1.058334 0.0558,-0.111559 0.2088,-0.153027 0.26458,-0.264583 0.0394,-0.07889 -0.0394,-0.1857 0,-0.264583 0.0558,-0.111559 0.20881,-0.153027 0.26459,-0.264584 0.10583,-0.211666 -0.10584,-0.582083 0,-0.79375 0.0558,-0.111559 0.2088,-0.153027 0.26458,-0.264583 0.0394,-0.07889 0,-0.17639 0,-0.264583 0,-0.0882 0,-0.17639 0,-0.264584 0,-0.440973 0,-0.881946 0,-1.322916 0,-0.881947 0,-1.76389 0,-2.645834 0,-0.0882 0,-0.176389 0,-0.264583 0,-0.0882 0.0624,-0.202221 0,-0.264583 -0.0624,-0.06236 -0.20222,0.06236 -0.26458,0 -0.0541,-0.05409 0.0524,-0.688846 0,-0.79375 -0.0558,-0.111559 -0.20881,-0.153027 -0.26459,-0.264584 -0.0394,-0.07888 0.0394,-0.1857 0,-0.264583 -0.0558,-0.111559 -0.2088,-0.153027 -0.26458,-0.264583 -0.0789,-0.157769 0.12472,-0.404442 0,-0.529167 -0.0624,-0.06236 -0.20222,0.06236 -0.26458,0 -0.0624,-0.06236 0.0394,-0.1857 0,-0.264583 -0.0558,-0.111559 -0.20881,-0.153027 -0.26459,-0.264584 -0.0394,-0.07888 0,-0.176389 0,-0.264583 0,-0.352779 0,-0.705556 0,-1.058333"
       id="path9972-0"
       inkscape:connector-curvature="0" />
    <path
       style="fill:none;fill-rule:evenodd;stroke:#000000;stroke-width:0.26458332px;stroke-linecap:butt;stroke-linejoin:miter;stroke-opacity:1"
       d="m 92.604167,74.75 c -0.26459,-0.352776 -0.59654,-0.663916 -0.79375,-1.058333 -0.0789,-0.157766 0,-0.352777 0,-0.529167 0,-0.275148 -0.052,-1.379376 0,-1.5875 0.0478,-0.19132 0.20222,-0.342077 0.26458,-0.529164 0.0571,-0.171428 0,-1.106305 0,-1.322919 0,-0.529166 0,-1.058332 0,-1.587499 0,-0.17639 0,-0.352779 0,-0.529167 0,-0.0882 0.0279,-0.180916 0,-0.264583 -0.0624,-0.187089 -0.20222,-0.34208 -0.26458,-0.529167 -0.0756,-0.226657 0.0583,-0.824915 0,-1.058333 -0.0478,-0.191323 -0.20222,-0.34208 -0.26459,-0.529167 -0.0937,-0.281151 0.0937,-0.777184 0,-1.058333 -0.0394,-0.118327 -0.22514,-0.146259 -0.26458,-0.264583 -0.13229,-0.396875 0.13229,-0.926042 0,-1.322917 -0.0394,-0.118327 -0.22514,-0.146259 -0.26458,-0.264583 -0.11156,-0.334677 0.11156,-0.723659 0,-1.058333 -0.0394,-0.118327 -0.22514,-0.146259 -0.26459,-0.264584 -0.0558,-0.167338 0.0558,-0.361831 0,-0.529166 -0.0394,-0.118327 -0.22514,-0.146259 -0.26458,-0.264584 -0.0558,-0.167338 0.0789,-0.371401 0,-0.529166 -0.0394,-0.07889 -0.20222,0.06236 -0.26458,0 -0.0624,-0.06236 0.0394,-0.185701 0,-0.264584 -0.0558,-0.111559 -0.20881,-0.153027 -0.26459,-0.264583 -0.0524,-0.104907 0.0541,-0.739661 0,-0.79375 -0.0624,-0.06237 -0.20222,0.06236 -0.26458,0 -0.0624,-0.06237 0,-0.17639 0,-0.264583 0,-0.264584 -0.0642,-0.537068 0,-0.79375 0.0302,-0.121002 0.20881,-0.153027 0.26458,-0.264584 0.0841,-0.168262 -0.073,-1.103783 0,-1.322916 0.0394,-0.118327 0.20881,-0.153027 0.26459,-0.264584 0.0394,-0.07888 -0.0214,-0.179022 0,-0.264583 0.0676,-0.270568 0.19694,-0.523182 0.26458,-0.79375 0.0399,-0.159538 -0.0599,-1.262991 0,-1.322917 0.0624,-0.06236 0.20222,0.06236 0.26458,0 0.0541,-0.05409 -0.0524,-0.688845 0,-0.79375 0.0558,-0.111559 0.20881,-0.153027 0.26459,-0.264583 0.10583,-0.211667 -0.10584,-0.582083 0,-0.79375 0.0558,-0.111559 0.2088,-0.153027 0.26458,-0.264583 0.0392,-0.07847 0,-1.331587 0,-1.5875 0,-1.499307 0,-2.998613 0,-4.497917 0,-0.230312 -0.003,-1.056 0,-1.058333 0.40157,-0.321255 0.88195,-0.529167 1.32292,-0.79375"
       id="path9974-8"
       inkscape:connector-curvature="0" />
  </g>
</svg>
